<?xml version="1.0" encoding="UTF-8"?>
<svg width="933px" height="230px" viewBox="0 0 933 230" version="1.1" xmlns="http://www.w3.org/2000/svg" xmlns:xlink="http://www.w3.org/1999/xlink">
    <!-- Generator: Sketch 58 (84663) - https://sketch.com -->
    <title>mindbox</title>
    <desc>Created with Sketch.</desc>
    <g id="mindbox" stroke="none" stroke-width="1" fill="none" fill-rule="evenodd">
        <g id="logo">
            <g id="texto" transform="translate(289.000000, 25.000000)">
                <g transform="translate(9.580093, 32.860918)">
                    <path d="M56.4981649,62.8888782 C57.496822,64.7729136 58.4580151,66.7312894 59.3817729,68.7640644 C60.3055308,70.7968394 61.1918257,72.879163 62.0406843,75.0110978 C62.8895429,72.8295831 63.7883208,70.7100751 64.7370451,68.6525102 C65.6857694,66.5949453 66.6594455,64.5993851 67.6581026,62.6657699 L95.6702955,7.92985828 C96.1696241,6.98784059 96.6814282,6.25654836 97.2057232,5.73595964 C97.7300182,5.21537093 98.3167204,4.83113264 98.9658476,4.58323325 C99.6149747,4.33533386 100.351473,4.18659645 101.175365,4.13701657 C101.999258,4.0874367 102.960451,4.06264713 104.058974,4.06264713 L123.382893,4.06264713 L123.382893,112.418929 L101.063017,112.418929 L101.063017,50.0973337 C101.063017,47.0729611 101.212813,43.8007382 101.512411,40.2805669 L72.6014308,95.9832813 C71.7026394,97.718577 70.4917857,99.0324241 68.9688336,99.9248619 C67.4458814,100.8173 65.7107407,101.263512 63.7633593,101.263512 L60.3180093,101.263512 C58.3706279,101.263512 56.6354871,100.8173 55.112535,99.9248619 C53.5895828,99.0324241 52.3787292,97.718577 51.4799378,95.9832813 L22.4191602,40.2061975 C22.6188916,41.9414932 22.7686879,43.6643681 22.8685537,45.3748739 C22.9684194,47.0853797 23.0183515,48.6595172 23.0183515,50.0973337 L23.0183515,112.418929 L0.698475894,112.418929 L0.698475894,4.06264713 L20.022395,4.06264713 L20.8205383,4.06729518 C21.5929331,4.07659131 22.288084,4.09983167 22.9060031,4.13701657 C23.7298953,4.18659645 24.4663939,4.33533386 25.115521,4.58323325 C25.7646481,4.83113264 26.3513504,5.21537093 26.8756454,5.73595964 C27.3999404,6.25654836 27.9117445,6.98784059 28.4110731,7.92985828 L56.4981649,62.8888782 Z M163.584448,35.2978141 L163.584448,112.418929 L140.365785,112.418929 L140.365785,35.2978141 L163.584448,35.2978141 Z M166.280809,14.1768917 C166.280809,16.0113471 165.906318,17.7342221 165.157325,19.3455681 C164.408332,20.9569141 163.384724,22.3699195 162.08647,23.5846265 C160.788215,24.7993335 159.277769,25.7661266 157.555086,26.4850348 C155.832402,27.2039431 153.997397,27.5633918 152.050016,27.5633918 C150.152567,27.5633918 148.379977,27.2039431 146.732193,26.4850348 C145.084409,25.7661266 143.623894,24.7993335 142.350607,23.5846265 C141.077319,22.3699195 140.078677,20.9569141 139.35465,19.3455681 C138.630624,17.7342221 138.268616,16.0113471 138.268616,14.1768917 C138.268616,12.2928563 138.630624,10.532797 139.35465,8.89666106 C140.078677,7.26052509 141.077319,5.82273019 142.350607,4.58323325 C143.623894,3.3437363 145.084409,2.37694318 146.732193,1.68282489 C148.379977,0.988706594 150.152567,0.641652654 152.050016,0.641652654 C153.997397,0.641652654 155.832402,0.988706594 157.555086,1.68282489 C159.277769,2.37694318 160.788215,3.3437363 162.08647,4.58323325 C163.384724,5.82273019 164.408332,7.26052509 165.157325,8.89666106 C165.906318,10.532797 166.280809,12.2928563 166.280809,14.1768917 Z M180.567341,112.418929 L180.567341,35.2978141 L194.947932,35.2978141 C196.395984,35.2978141 197.606838,35.6200784 198.580529,36.2646169 C199.554219,36.9091553 200.240786,37.8759484 200.640249,39.1650252 L201.988429,43.6271919 C203.486415,42.2389553 205.03431,40.9498979 206.632162,39.7599808 C208.230013,38.5700637 209.940188,37.5660862 211.762737,36.7480183 C213.585286,35.9299503 215.557605,35.2854215 217.679751,34.8144127 C219.801898,34.3434038 222.111258,34.107903 224.6079,34.107903 C228.852193,34.107903 232.609584,34.8391952 235.880187,36.3018016 C239.150789,37.764408 241.909538,39.7971525 244.156516,42.4000961 C246.403495,45.0030397 248.101187,48.1017356 249.249642,51.6962767 C250.398098,55.2908179 250.972317,59.1951747 250.972317,63.4094643 L250.972317,112.418929 L227.753655,112.418929 L227.753655,63.4094643 C227.753655,59.6413936 226.879843,56.7038299 225.132193,54.5966851 C223.384543,52.4895403 220.813039,51.4359837 217.417605,51.4359837 C214.871029,51.4359837 212.474288,51.9813541 210.227309,53.0721115 C207.980331,54.1628688 205.83325,55.6254532 203.786003,57.4599087 L203.786003,112.418929 L180.567341,112.418929 Z M320.23465,112.418929 C318.786597,112.418929 317.575744,112.096664 316.602053,111.452126 C315.628362,110.807587 314.941796,109.840794 314.542333,108.551718 L312.744759,102.676531 C311.19684,104.312667 309.574047,105.800041 307.87633,107.138698 C306.178613,108.477355 304.343608,109.63007 302.37126,110.596877 C300.398912,111.563685 298.276797,112.307372 296.004852,112.827961 C293.732907,113.348549 291.273751,113.60884 288.627309,113.60884 C284.582748,113.60884 280.83784,112.716415 277.392473,110.93154 C273.947106,109.146664 270.976145,106.568549 268.479502,103.197117 C265.982859,99.8256858 264.023024,95.6982228 262.599938,90.8146049 C261.176851,85.9309869 260.465319,80.365729 260.465319,74.1186644 C260.465319,68.3673986 261.264233,63.0252469 262.862084,58.092049 C264.459935,53.1588511 266.719363,48.8950456 269.640435,45.3005044 C272.561508,41.7059633 276.069238,38.8923474 280.163733,36.8595724 C284.258227,34.8267974 288.777083,33.8104252 293.720435,33.8104252 C297.715064,33.8104252 301.097964,34.39298 303.869238,35.5581071 C306.640512,36.7232343 309.1496,38.2477926 311.396579,40.131828 L311.396579,1.08786933 L334.615241,1.08786933 L334.615241,112.418929 L320.23465,112.418929 Z M296.716392,95.9089118 C298.414109,95.9089118 299.949521,95.7477797 301.322675,95.4255104 C302.695829,95.1032412 303.956614,94.6446343 305.10507,94.0496757 C306.253526,93.4547172 307.339549,92.7110302 308.363173,91.8185924 C309.386796,90.9261546 310.397921,89.8849927 311.396579,88.6950757 L311.396579,55.9725198 C309.598996,54.0389046 307.689093,52.6878732 305.666812,51.9193851 C303.644531,51.150897 301.509933,50.7666587 299.262955,50.7666587 C297.115842,50.7666587 295.143524,51.1880813 293.345941,52.0309392 C291.548358,52.8737972 289.98798,54.2248286 288.664759,56.084074 C287.341538,57.9433194 286.305447,60.3603022 285.556454,63.3350949 C284.807461,66.3098876 284.43297,69.9043748 284.43297,74.1186644 C284.43297,78.1842144 284.732563,81.6051747 285.331757,84.3816479 C285.930952,87.158121 286.767314,89.4015768 287.840871,91.1120826 C288.914427,92.8225884 290.200179,94.049672 291.698165,94.7933702 C293.196151,95.5370683 294.868876,95.9089118 296.716392,95.9089118 Z M350.849145,112.418929 L350.849145,4.06264713 L390.994961,4.06264713 C398.534823,4.06264713 404.951098,4.75675501 410.243981,6.14499159 C415.536864,7.53322818 419.855992,9.49160398 423.201493,12.0201778 C426.546994,14.5487515 428.981185,17.6226579 430.504137,21.241989 C432.027089,24.86132 432.788554,28.9020195 432.788554,33.3642085 C432.788554,35.7936225 432.439029,38.1362366 431.739969,40.3921211 C431.040909,42.6480055 429.942403,44.7675135 428.444417,46.7507086 C426.946431,48.7339037 425.024045,50.5311474 422.677201,52.1424934 C420.330356,53.7538394 417.509192,55.15445 414.213624,56.344367 C421.403955,58.0796628 426.721725,60.8932786 430.167092,64.7852991 C433.612459,68.6773195 435.335117,73.6724173 435.335117,79.7707423 C435.335117,84.3816709 434.436339,88.670266 432.638756,92.6366563 C430.841173,96.6030465 428.207254,100.061191 424.736921,103.011194 C421.266587,105.961197 416.984909,108.266626 411.891757,109.927552 C406.798606,111.588478 400.981515,112.418929 394.440311,112.418929 L350.849145,112.418929 Z M376.164977,66.4586116 L376.164977,93.4547202 L393.990918,93.4547202 C397.336419,93.4547202 400.070202,93.0332975 402.192348,92.1904396 C404.314495,91.3475817 405.974737,90.2568407 407.173126,88.918184 C408.371515,87.5795273 409.195394,86.0673637 409.64479,84.3816479 C410.094186,82.695932 410.31888,80.9854519 410.31888,79.2501561 C410.31888,77.266961 410.056737,75.4821122 409.532442,73.8955561 C409.008147,72.309 408.109369,70.9703634 406.836081,69.8796061 C405.562793,68.7888487 403.877584,67.9460035 401.780404,67.3510449 C399.683224,66.7560864 397.036823,66.4586116 393.84112,66.4586116 L376.164977,66.4586116 Z M376.164977,49.651117 L389.347185,49.651117 C392.143425,49.651117 394.664997,49.4528004 396.911975,49.0561614 C399.158954,48.6595224 401.068857,47.9654145 402.641742,46.973817 C404.214627,45.9822194 405.412997,44.6187932 406.23689,42.8834975 C407.060782,41.1482017 407.472722,38.9667198 407.472722,36.3389863 C407.472722,33.7608327 407.148163,31.6165351 406.499036,29.9060293 C405.849909,28.1955235 404.851266,26.8197025 403.503079,25.7785251 C402.154892,24.7373477 400.444717,23.9936607 398.372504,23.5474417 C396.30029,23.1012228 393.841134,22.8781167 390.994961,22.8781167 L376.164977,22.8781167 L376.164977,49.651117 Z M481.977978,34.107903 C487.870055,34.107903 493.237757,35.0251169 498.081244,36.8595724 C502.924731,38.6940279 507.081579,41.321722 510.551913,44.7427336 C514.022246,48.1637452 516.71858,52.3159977 518.640995,57.1996157 C520.56341,62.0832336 521.524603,67.5741228 521.524603,73.6724478 C521.524603,79.8203526 520.56341,85.3608209 518.640995,90.2940187 C516.71858,95.2272166 514.022246,99.4166534 510.551913,102.862455 C507.081579,106.308256 502.924731,108.96074 498.081244,110.819986 C493.237757,112.679231 487.870055,113.60884 481.977978,113.60884 C476.035968,113.60884 470.630817,112.679231 465.762364,110.819986 C460.89391,108.96074 456.699613,106.308256 453.179347,102.862455 C449.65908,99.4166534 446.93778,95.2272166 445.015365,90.2940187 C443.09295,85.3608209 442.131757,79.8203526 442.131757,73.6724478 C442.131757,67.5741228 443.09295,62.0832336 445.015365,57.1996157 C446.93778,52.3159977 449.65908,48.1637452 453.179347,44.7427336 C456.699613,41.321722 460.89391,38.6940279 465.762364,36.8595724 C470.630817,35.0251169 476.035968,34.107903 481.977978,34.107903 Z M481.977978,96.5038674 C487.320794,96.5038674 491.252947,94.6322551 493.774557,90.8889743 C496.296166,87.1456935 497.556952,81.4564879 497.556952,73.8211866 C497.556952,66.1858854 496.296166,60.5090746 493.774557,56.7905837 C491.252947,53.0720929 487.320794,51.2128753 481.977978,51.2128753 C476.485364,51.2128753 472.465829,53.0720929 469.919253,56.7905837 C467.372678,60.5090746 466.099409,66.1858854 466.099409,73.8211866 C466.099409,81.4564879 467.372678,87.1456935 469.919253,90.8889743 C472.465829,94.6322551 476.485364,96.5038674 481.977978,96.5038674 Z M546.596579,72.5569061 L521.580342,35.2978141 L543.900218,35.2978141 C545.548002,35.2978141 546.758856,35.5085254 547.532815,35.9299544 C548.306774,36.3513833 548.993341,37.057886 549.592535,38.0494835 L563.448834,60.8809032 C563.748431,59.9884654 564.122922,59.1208305 564.572317,58.2779726 C565.021713,57.4351147 565.521034,56.5426903 566.070295,55.6006726 L575.956952,38.4213308 C576.606079,37.2809936 577.330095,36.4753326 578.12902,36.0043238 C578.927946,35.533315 579.901622,35.2978141 581.050078,35.2978141 L602.321369,35.2978141 L577.305132,71.5157338 L603.369953,112.418929 L581.050078,112.418929 C579.402293,112.418929 578.079093,112.022296 577.080435,111.229018 C576.081778,110.435739 575.257899,109.493736 574.608771,108.402979 L560.752473,84.7534951 C560.502808,85.596353 560.203216,86.3896191 559.853686,87.1333173 C559.504156,87.8770155 559.129665,88.5711234 558.730202,89.2156618 L547.345568,108.402979 C546.746373,109.444156 545.94746,110.373765 544.948802,111.191833 C543.950145,112.009901 542.701843,112.418929 541.203857,112.418929 L520.531757,112.418929 L546.596579,72.5569061 Z" id="MindBox" fill="#4F39A5" fill-rule="nonzero"></path>
                    <path d="M603.545879,27.2472405 C603.545879,26.2489125 603.674956,25.2893689 603.933116,24.3685809 C604.191275,23.4477929 604.556589,22.5875959 605.029069,21.7879643 C605.501549,20.9883326 606.069003,20.2589825 606.73145,19.5998922 C607.393896,18.9408018 608.129395,18.3762218 608.937969,17.9061353 C609.746543,17.4360488 610.61112,17.0725853 611.531725,16.815734 C612.452331,16.5588826 613.414324,16.4304588 614.417736,16.4304588 C615.421147,16.4304588 616.388012,16.5588826 617.318359,16.815734 C618.248706,17.0725853 619.115718,17.4360488 619.919421,17.9061353 C620.723124,18.3762218 621.458624,18.9408018 622.125941,19.5998922 C622.793258,20.2589825 623.363148,20.9883326 623.835628,21.7879643 C624.308108,22.5875959 624.673422,23.4477929 624.931581,24.3685809 C625.18974,25.2893689 625.318818,26.2489125 625.318818,27.2472405 C625.318818,28.235876 625.18974,29.1905735 624.931581,30.1113615 C624.673422,31.0321495 624.308108,31.8923464 623.835628,32.6919781 C623.363148,33.4916098 622.793258,34.2209598 622.125941,34.8800502 C621.458624,35.5391405 620.723124,36.1037205 619.919421,36.573807 C619.115718,37.0438935 618.248706,37.407357 617.318359,37.6642084 C616.388012,37.9210598 615.421147,38.0494835 614.417736,38.0494835 C613.424066,38.0494835 612.464508,37.9210598 611.539032,37.6642084 C610.613555,37.407357 609.746543,37.0438935 608.937969,36.573807 C608.129395,36.1037205 607.393896,35.5391405 606.73145,34.8800502 C606.069003,34.2209598 605.501549,33.4916098 605.029069,32.6919781 C604.556589,31.8923464 604.191275,31.0345726 603.933116,30.1186308 C603.674956,29.2026891 603.545879,28.2455686 603.545879,27.2472405 Z M605.971589,27.2472405 C605.971589,28.4781887 606.188342,29.6267333 606.621854,30.6929089 C607.055367,31.7590845 607.652047,32.6871279 608.411911,33.4770671 C609.171776,34.2670063 610.065578,34.8873173 611.093344,35.3380188 C612.12111,35.7887203 613.229229,36.0140676 614.417736,36.0140676 C615.538049,36.0140676 616.587718,35.8153743 617.566775,35.4179815 C618.545831,35.0205888 619.415279,34.4681243 620.175144,33.7605714 L617.018798,33.7605714 C616.482996,33.7605714 616.112811,33.5715704 615.908232,33.1935627 L614.563863,29.8351265 C614.456702,29.6703539 614.342237,29.5516225 614.220464,29.4789287 C614.098691,29.4062349 613.920905,29.3698885 613.6871,29.3698885 L613.219493,29.3698885 L613.219493,33.7605714 L609.303287,33.7605714 L609.303287,20.6612162 L614.446961,20.6612162 C615.421147,20.6612162 616.261369,20.7484474 616.967654,20.9229125 C617.673938,21.0973776 618.25357,21.3493789 618.706566,21.6789241 C619.159563,22.0084693 619.493216,22.4155484 619.707537,22.9001737 C619.921858,23.3847989 620.029017,23.9372634 620.029017,24.5575838 C620.029017,24.964669 619.980308,25.3547865 619.88289,25.7279479 C619.785471,26.1011094 619.63691,26.4451881 619.437202,26.7601946 C619.237494,27.075201 618.979339,27.3587025 618.662728,27.6107076 C618.346118,27.8627128 617.968627,28.0710985 617.530243,28.2358711 C617.812757,28.3812587 618.051429,28.5678366 618.246266,28.7956105 C618.441103,29.0233844 618.616454,29.2971935 618.772324,29.6170462 L620.5843,33.3534883 C621.324681,32.5683953 621.904312,31.6573135 622.323212,30.6202155 C622.742112,29.5831174 622.951559,28.4588037 622.951559,27.2472405 C622.951559,26.4233776 622.851706,25.6334503 622.651998,24.8774348 C622.45229,24.1214194 622.169781,23.4163003 621.804461,22.7620562 C621.439141,22.1078121 620.998329,21.5117319 620.482011,20.9737979 C619.965692,20.4358639 619.390931,19.9778999 618.757711,19.5998922 C618.12449,19.2218845 617.44257,18.9286906 616.711931,18.7203017 C615.981292,18.5119128 615.216568,18.40772 614.417736,18.40772 C613.229229,18.40772 612.12111,18.6354904 611.093344,19.0910382 C610.065578,19.5465859 609.171776,20.1741662 608.411911,20.9737979 C607.652047,21.7734296 607.055367,22.7111654 606.621854,23.7870335 C606.188342,24.8629015 605.971589,26.0162924 605.971589,27.2472405 Z M613.219493,26.6947705 L613.219493,23.5107984 L614.446961,23.5107984 C614.836635,23.5107984 615.145935,23.5447217 615.374868,23.6125692 C615.603802,23.6804168 615.776717,23.7797635 615.893619,23.9106123 C616.010522,24.0414611 616.08602,24.201385 616.120116,24.3903889 C616.154213,24.5793927 616.171261,24.7998939 616.171261,25.0518991 C616.171261,25.3135967 616.154213,25.5486364 616.120116,25.7570253 C616.08602,25.9654142 616.00078,26.1374535 615.864394,26.2731486 C615.728008,26.4088437 615.525868,26.5130366 615.257967,26.5857303 C614.990065,26.6584241 614.622316,26.6947705 614.154707,26.6947705 L613.219493,26.6947705 Z" id="®" fill="#4F39A5" fill-rule="nonzero"></path>
                </g>
            </g>
            <g id="icono" fill="#4F39A5">
                <path d="M130,14 L259,88.6750325 L207.836,118.293 L207.836737,172.153219 L130,217 L130,195.529919 L189.068142,161.646163 L189.068,129.157 L130,163.350065 L72.49,130.059 L72.48929,130.05939 L72.2904744,190.787639 L62.2517082,175.203608 L54.2528902,180.349259 L54.485,119.636 L54.455,119.619 L54.485,119.602 L54.4856772,119.582449 L112.447786,85.92507 L130,96.5675156 L91.267,119.123 L130,141.493958 L221.450704,88.6750325 L130,35.8561071 L38.5492958,88.6750325 L58.571,100.239 L39.734,111.097 L1,88.6750325 L130,14 Z" id="Combined-Shape"></path>
            </g>
        </g>
    </g>
</svg>